<?xml version="1.0" standalone="no"?>
<svg version="1.1" id="Layer_1" xmlns="http://www.w3.org/2000/svg" xmlns:xlink="http://www.w3.org/1999/xlink" x="0px" y="0px" viewBox="0 0 595.28 595.28" enable-background="new 0 0 595.28 595.28" xml:space="preserve">
<path id="color_x5F_7" fill="#d0021b" d="M385.712,199.595l-10.334,4.571l4.196,8.393L365.2,227.527l4.165,5.387l-22.735,49.729
	l4.791-42.527l-8.392-4.196l9.582-41.337l-10.772-8.392l7.14-18.539c-21.796-13.246-47.412-20.888-74.813-20.888
	c-79.635,0-144.207,64.542-144.207,144.208c0,79.635,64.572,144.207,144.207,144.207s144.207-64.572,144.207-144.207
	C418.374,256.276,406.13,224.459,385.712,199.595L385.712,199.595z M275.67,391.872L275.67,391.872
	c-11.493,0-20.762-9.269-20.762-20.762c0-11.462,9.269-20.761,20.762-20.761c11.462,0,20.762,9.3,20.762,20.761
	C296.432,382.602,287.132,391.872,275.67,391.872L275.67,391.872z M292.612,341.172L292.612,341.172l-33.664-8.58l-25.052-136.254
	l2.85-3.601l73.027,2.161L292.612,341.172z"></path>
<path id="color_x5F_6" fill="#FEBE40" d="M144.74,323.385l6.545,108.319l-19.572-0.219l-15.251-83.832l-14.186,84.27l-19.572-0.626
	l4.917-111.828c0.282-0.344,0.72-0.657,1.221-0.907c0.063,0.155,0.157,0.313,0.251,0.438c2.693,3.601,41.931,5.073,53.048,3.851
	C143.801,323.197,144.74,323.385,144.74,323.385L144.74,323.385z M275.67,350.348L275.67,350.348
	c-11.493,0-20.762,9.3-20.762,20.761c0,11.493,9.269,20.762,20.762,20.762c11.462,0,20.762-9.269,20.762-20.762
	C296.432,359.647,287.132,350.348,275.67,350.348L275.67,350.348z M233.895,196.338L233.895,196.338l25.052,136.254l33.664,8.58
	l17.161-146.274l-73.027-2.161L233.895,196.338z M472.644,83.916L472.644,83.916c-6.889,7.672-10.585,14.686-12.526,20.542
	c0.376-7.672-0.532-17.662-4.353-29.937c0,0-8.925,21.857-1.503,46.033h2.599c0.407-1.034,0.877-2.286,1.315-3.82
	c0.063,1.722,0.251,3.006,0.438,3.789h1.065C474.805,104.677,472.644,83.916,472.644,83.916L472.644,83.916z M462.467,120.492
	L462.467,120.492h3.726c17.161-11.962,23.142-30.22,23.142-30.22C470.107,102.455,464.22,115.075,462.467,120.492L462.467,120.492z
	 M421.381,91.056L421.381,91.056c0,0,5.793,17.631,22.265,29.593l4.384-0.031C446.026,114.855,439.857,102.737,421.381,91.056
	L421.381,91.056z M450.347,120.586L450.347,120.586h1.91c0.783-4.635,1.347-18.57-14.186-35.887
	C438.072,84.699,436.005,104.835,450.347,120.586L450.347,120.586z"></path>
<path id="color_x5F_5" fill="#fdcbb1" d="M468.667,240.368c-0.783,0.876-1.002,2.003-1.002,2.974
	c-3.257-0.156-8.048-0.375-11.555-0.469c-0.282-1.566-0.72-3.288-1.409-3.726c-1.315-0.877-3.382,0.563-4.729-1.002
	c-1.315-1.598-1.253-4.197-1.785-4.729c-0.532-0.533-1.941,0.094-2.223-1.034c-0.251-1.159,0.376-1.692-0.846-4.134
	c-0.689-1.378-1.002-3.507-1.159-5.135c0.063,0,0.157,0.031,0.219,0.031c4.509,0.282,5.825-1.754,6.106,0.344
	c0.313,2.098,3.351,4.666,3.539,2.693c0.219-2.003,1.033-5.354,3.413-4.572c2.411,0.815-0.031,4.447-0.219,9.427
	c-0.188,5.01,0.47,4.635,4.666,6.044c2.443,0.813,7.171,1.001,10.96-0.815C471.454,238.27,469.732,239.209,468.667,240.368
	L468.667,240.368z M389.721,242.403L389.721,242.403c-0.219-0.438-4.666-17.912-5.605-18.037c-0.94-0.125-0.72,4.697-0.72,5.637
	c0,0.939,0.501,14.749,0.157,16.064c-0.344,1.346,2.098,1.598,2.098,1.598l5.011,5.167l0.031-0.031l5.512-4.383
	C393.416,245.91,389.877,242.716,389.721,242.403L389.721,242.403z M469.199,430.609L469.199,430.609l0.313,6.608h9.081l0.846-6.608
	H469.199z M447.341,440.505L447.341,440.505h9.081l0.908-7.077h-10.303L447.341,440.505z M87.12,436.871L87.12,436.871l0.47,0.846
	l7.735,0.094l0,0c0,0,0.72-1.002,1.441-1.002l0,0l1.221-5.01l-10.585-0.375L87.12,436.871z M92.13,207.863L92.13,207.863
	c0.908-1.534,0-1.66-0.282-2.286c-0.313-0.596-0.626-2.569,0.157-3.758c0.752-1.221,3.601-4.103,5.136-4.855
	c1.503-0.751,4.666-1.972,4.102-3.193c-0.564-1.253-2.912-1.785-8.956,1.221c-6.044,3.037-8.455,9.238-8.455,9.238l-8.424,8.768
	l5.856,3.789l5.292-6.669c0,0,1.19-1.346,1.942-1.346C89.281,208.771,91.222,209.365,92.13,207.863L92.13,207.863z M120.69,211.839
	L120.69,211.839c-1.848,0.689-2.693,3.038-2.693,3.038s-6.545,0.657-11.931-1.002c-5.386-1.691-8.079-4.885-8.079-4.885
	c0,3.162-3.163,6.044-3.163,6.044s1.816,10.428,5.011,13.653c3.194,3.194,5.543,2.663,6.388,3.696
	c0.501,0.594,1.472,2.787,2.13,4.384c3.006,0.03,8.111,0.093,12.714,0.25c-1.127-2.882-3.225-8.738-2.223-9.363
	c1.347-0.846,1.691-5.543,1.691-5.543s2.161-2.005,3.351-4.697C125.074,214.72,122.538,211.181,120.69,211.839L120.69,211.839z
	 M135.753,431.642L135.753,431.642l1.221,5.01c0.031,0,0.031,0,0.031,0c0.72,0,1.441,1.002,1.441,1.002l0,0l7.735-0.063l0.47-0.846
	l-0.313-5.448L135.753,431.642z M142.329,212.027L142.329,212.027l1.378-1.096l-7.547-7.296c0,0-2.662-6.075-8.831-8.863
	c-6.169-2.787-8.486-2.16-9.019-0.907c-0.501,1.284,2.724,2.349,4.259,3.069c1.535,0.688,4.509,3.444,5.324,4.602
	c0.814,1.19,0.564,3.163,0.313,3.789c-0.282,0.627-1.19,0.783-0.219,2.287c0.971,1.472,2.912,0.782,3.664,0.751
	c0.752-0.031,2.004,1.284,2.004,1.284l4.76,5.543L142.329,212.027z"></path>
<path id="color_x5F_4" fill="#4a90e2" d="M84.807,242.51c0.415,0.062,0.779,0.09,1.086,0.08
	C85.586,242.6,85.222,242.572,84.807,242.51z M91.784,208.286c0.125-0.12,0.244-0.254,0.346-0.423
	C92.027,208.032,91.909,208.167,91.784,208.286z M90.151,208.88c-0.106,0.003-0.21,0.003-0.313,0
	C89.941,208.884,90.045,208.883,90.151,208.88z M91.554,204.44c0.04,0.331,0.105,0.627,0.179,0.854
	C91.659,205.067,91.593,204.771,91.554,204.44z M85.962,271.664c-0.022-0.049-0.042-0.104-0.065-0.149
	C85.919,271.56,85.94,271.615,85.962,271.664z M91.687,208.373c-0.116,0.097-0.238,0.18-0.367,0.245
	C91.449,208.553,91.57,208.47,91.687,208.373z M84.107,242.384c0.22,0.045,0.429,0.083,0.628,0.115
	C84.536,242.467,84.326,242.429,84.107,242.384z M106.401,236.736c-0.059-0.001-0.128-0.002-0.178-0.002
	c-3.1,0-17.474,4.29-19.541,5.668c-0.078,0.053-0.178,0.091-0.29,0.122c0.111-0.03,0.211-0.068,0.288-0.12
	c2.067-1.378,16.441-5.668,19.541-5.668C106.274,236.736,106.341,236.736,106.401,236.736z M91.279,208.642
	c-0.141,0.067-0.289,0.114-0.439,0.151C90.989,208.757,91.137,208.71,91.279,208.642z M96.341,321.196
	c0.451,0.07,0.917,0.139,1.398,0.206C97.257,321.335,96.792,321.266,96.341,321.196z M86.125,272.094
	c0.02,0.063,0.04,0.127,0.06,0.194C86.165,272.221,86.145,272.157,86.125,272.094z M86.346,272.919
	c0.009,0.042,0.019,0.079,0.028,0.122C86.365,272.998,86.355,272.96,86.346,272.919z M90.694,208.823
	c-0.106,0.02-0.212,0.034-0.319,0.043C90.482,208.857,90.588,208.843,90.694,208.823z M275.67,391.871
	c-11.493,0-20.762-9.269-20.762-20.761c0,0,0,0,0,0c0,11.493,9.269,20.762,20.762,20.762c11.462,0,20.762-9.27,20.762-20.762
	c0,0,0,0,0,0C296.432,382.602,287.132,391.871,275.67,391.871z M309.772,194.898l-17.161,146.274l0.001,0L309.772,194.898
	L309.772,194.898z M97.141,196.964c1.315-0.656,3.901-1.674,4.149-2.736C101.042,195.29,98.456,196.307,97.141,196.964z
	 M97.948,321.43c9.682,1.323,25.095,1.963,35.643,1.824c0,0,0-0.001,0-0.001C123.055,323.391,107.632,322.751,97.948,321.43z
	 M478.156,120.398l-11.954,0.087c-0.003,0.002-0.006,0.004-0.009,0.007h-0.881l-8.451,0.062c0,0,0,0,0,0h-0.023l-21.459,0.157
	l3.1,9.645h35.95h0.001L478.156,120.398z M287.288,147.374c22.448,2.025,43.415,9.171,61.691,20.278l-2.298,5.966
	c39.982-1.042,66.712-46.497,27.476-55.631c-44.155-10.303-70.742-1.221-89.499-13.904c-18.727-12.714-30.814-13.309-32.631,2.411
	C252.027,106.494,265.141,128.417,287.288,147.374z M87.621,319.469c0.282-0.344,0.72-0.657,1.221-0.907
	c0.044,0.109,0.113,0.209,0.177,0.309c-1.785-2.794-1.551-18.143-1.729-30.751c-12.048-1.972-21.622-4.852-24.064-7.512
	c-4.538-4.976-5.979-16.614-2.386-26.57c-9.203-6.477-17.246-12.897-16.467-15.58c1.722-5.825,29.123-26.712,29.123-26.712
	l1.918,1.246l8.418-8.762c0,0,2.411-6.201,8.455-9.238c6.044-3.006,8.392-2.474,8.956-1.221c8.236-1.879,10.115-0.345,10.115-0.345
	s13.184,1.191,16.096,14.562c1.717,7.806,7.422,11.628,13.354,15.313c-2.727-3.418-4.962-6.073-4.962-6.073l2.558-2.051l-4.749-5.53
	c0,0-1.252-1.315-2.004-1.284s-2.693,0.721-3.664-0.751c-0.971-1.504-0.063-1.66,0.219-2.287c0.251-0.626,0.501-2.599-0.313-3.789
	c-0.815-1.158-3.789-3.914-5.324-4.602c-1.535-0.72-4.76-1.785-4.259-3.069c0.533-1.253,2.85-1.88,9.019,0.907
	c6.169,2.788,8.831,8.863,8.831,8.863l7.543,7.292l2.414-1.935c0-0.001,2.388,2.165,5.831,5.416
	c23.071-36.753,62.253-62.36,107.645-66.915c-19.104-21.087-38.004-43.38-60.677-55.091
	c-49.259-25.397-158.894,17.13-158.832,108.006c0.062,70.389,17.261,126.625,45.311,169.685L87.621,319.469z M84.061,242.374
	c-2.716-0.57-6.825-2.139-9.874-3.385c12.463-7.577,12.338-10.615,14.906-18.162c2.004-5.887,0.97-8.956,0.438-11.963
	c0.021,0.002,0.044,0.002,0.065,0.003c-0.44-0.032-0.836-0.096-1.098-0.095c-0.752,0-1.942,1.346-1.942,1.346l-5.292,6.669
	l-1.583-1.024l4.087,2.654l-13.685,18.852C70.083,237.269,79.261,241.373,84.061,242.374z M92.379,201.291
	c1.07-1.38,3.42-3.669,4.762-4.327C95.798,197.622,93.449,199.911,92.379,201.291z M120.69,211.838
	c-1.847,0.689-2.693,3.038-2.693,3.038s-6.545,0.657-11.931-1.002c-5.386-1.691-8.079-4.885-8.079-4.885
	c0,3.162-3.163,6.044-3.163,6.044l0,0.001c0.002-0.002,3.163-2.883,3.163-6.044c0,0,2.693,3.194,8.079,4.885
	c5.386,1.659,11.931,1.002,11.931,1.002s0.845-2.349,2.693-3.038c1.155-0.411,2.579,0.817,3.194,2.453
	C123.269,212.655,121.845,211.427,120.69,211.838z M141.928,212.351l0.786-0.63l-0.385,0.306L141.928,212.351z M123.788,237.115
	c2.827,0.126,5.177,0.289,6.264,0.498c3.317,0.635,2.851,2.278,8.774,3.463c0-0.001,0.001-0.003,0.001-0.004
	c-5.924-1.185-5.458-2.829-8.775-3.463C128.975,237.394,126.615,237.234,123.788,237.115z M86.309,242.541
	c-0.095,0.02-0.2,0.035-0.314,0.042C86.109,242.576,86.214,242.562,86.309,242.541z M461.684,237.08
	c-4.196-1.409-4.854-1.034-4.666-6.044c0.188-4.98,2.63-8.612,0.219-9.427c-0.298-0.098-0.571-0.131-0.821-0.11
	c0.25-0.021,0.523,0.013,0.82,0.11c2.411,0.815-0.031,4.447-0.219,9.427C456.829,236.046,457.487,235.671,461.684,237.08
	c0.012,0.004,0.029,0.007,0.042,0.012C461.713,237.087,461.697,237.084,461.684,237.08z M450.285,223.488
	c-0.105-0.787-0.356-0.992-0.867-0.956C449.928,222.496,450.179,222.702,450.285,223.488c0.234,1.574,2.002,3.412,2.95,3.4
	C452.287,226.899,450.52,225.061,450.285,223.488z M475.809,362.504c0.05-0.041,0.099-0.087,0.15-0.126
	C475.908,362.418,475.859,362.463,475.809,362.504z M444.179,223.144c-0.001,0-0.002,0-0.004,0c0.001,0,0.002,0,0.003,0
	c0.282,0.018,0.552,0.026,0.809,0.027C444.73,223.17,444.461,223.162,444.179,223.144z M474.979,363.311
	c-0.051,0.057-0.101,0.117-0.151,0.176C474.878,363.428,474.928,363.369,474.979,363.311z M475.303,362.968
	c0.054-0.054,0.107-0.11,0.162-0.162C475.41,362.858,475.356,362.914,475.303,362.968z M463.084,237.417
	c-0.161-0.029-0.328-0.056-0.479-0.089C462.757,237.361,462.923,237.387,463.084,237.417z M485.246,407.387
	c1.678-17.626,4.02-39.607,5.655-44.294c2.818-8.08,2.098-27.433,2.098-27.433c6.326-1.409-1.754-74.185-6.326-80.513
	c-4.572-6.325-11.242-9.52-15.47-11.618c0,0-12.651-0.688-17.599-0.688c-4.917,0-19.917,23.205-22.015,25.302
	c-1.012,0.997-8.791-3.614-16.677-8.727c-4.987-22.344-15.161-42.726-29.2-59.821l-10.334,4.571l4.196,8.393L365.2,227.527
	l4.165,5.387l-22.735,49.729l4.791-42.527l-8.392-4.196l8.992-38.794c37.927-6.163,45.993-43.565,84.673-47.542
	c44.155-4.541,109.698,11.931,114.646,69.865C558.183,299.676,530.637,363.153,485.246,407.387z M466.475,203.697
	c-8.58-1.973-13.591-0.188-22.578-4.979c-8.988-4.791-14.593,6.389-10.397,14.186c4.125,7.667,6.137,9.848,10.46,10.218
	c0.157,1.627,0.47,3.75,1.158,5.126c1.222,2.442,0.595,2.975,0.846,4.134c0.282,1.128,1.691,0.501,2.223,1.034
	c0.532,0.532,0.47,3.131,1.785,4.729c1.347,1.565,3.414,0.125,4.729,1.002c0.689,0.438,1.127,2.16,1.409,3.726
	c3.507,0.094,8.298,0.313,11.555,0.469c0-0.971,0.219-2.098,1.002-2.974c1.065-1.159,2.787-2.098,3.976-4.103
	c-0.009,0.004-0.019,0.007-0.029,0.012c2.708-1.283,4.971-3.569,5.636-7.402C479.847,219.699,475.056,205.701,466.475,203.697z
	 M466.421,237.658c0.116-0.003,0.23-0.004,0.346-0.009C466.65,237.655,466.537,237.655,466.421,237.658z M464.226,237.578
	c-0.177-0.018-0.355-0.035-0.524-0.059C463.872,237.542,464.048,237.56,464.226,237.578z M474.5,363.898
	c-0.042,0.056-0.085,0.112-0.127,0.17C474.415,364.011,474.458,363.954,474.5,363.898z M465.451,237.658
	c-0.162-0.005-0.322-0.011-0.48-0.02C465.13,237.647,465.288,237.654,465.451,237.658z M94.303,320.846
	c-0.169-0.032-0.334-0.065-0.495-0.098C93.97,320.781,94.134,320.814,94.303,320.846z M473.936,364.708
	c0.026-0.04,0.052-0.078,0.077-0.117C473.988,364.63,473.962,364.668,473.936,364.708z M91.627,320.23
	c0.055,0.016,0.113,0.031,0.17,0.047C91.74,320.261,91.682,320.245,91.627,320.23z M95.16,321.002
	c0.238,0.041,0.483,0.082,0.732,0.122C95.643,321.084,95.398,321.044,95.16,321.002z M90.067,319.673
	c-0.033-0.015-0.065-0.031-0.096-0.046C90.002,319.642,90.034,319.658,90.067,319.673z M92.912,320.557
	c-0.108-0.025-0.21-0.05-0.314-0.075C92.702,320.507,92.804,320.532,92.912,320.557z M90.719,319.939
	c0.044,0.016,0.093,0.032,0.139,0.048C90.812,319.971,90.764,319.955,90.719,319.939z M465.206,424.823
	c0.003-0.003,0.006-0.005,0.01-0.008c0.076-3.502,0.212-7.847,0.448-12.614C465.425,416.972,465.286,421.32,465.206,424.823z
	 M465.715,411.195c-0.001,0.019-0.002,0.037-0.003,0.056C465.713,411.233,465.714,411.214,465.715,411.195z M89.471,319.343
	c-0.015-0.01-0.027-0.021-0.042-0.032C89.443,319.321,89.455,319.332,89.471,319.343z M116.462,347.653l-8.687,51.606
	c6.934,7.714,14.275,14.862,21.976,21.439L116.462,347.653z M426.485,449.397c0,0,0-0.563-0.063-1.221
	c-0.063-0.657,0.783-2.724,2.975-2.974c1.144-0.13,4.397-0.696,7.296-1.328c3.559-2.042,7.064-4.169,10.514-6.378l-0.181-4.069
	h6.333c0,0,0.001-0.001,0.001-0.001h-12.627l-0.47-97.767h0c-4.228-1.409,0.219-53.456,0.219-53.456s-7.954,8.925-14.28,7.516
	c-1.527-0.338-4.452-2.596-8.005-5.814c0.113,2.341,0.175,4.696,0.175,7.066c0,79.635-64.572,144.207-144.207,144.207
	c-55.121,0-103.018-30.941-127.287-76.396l4.406,72.921l-4.927-0.055l0.119,2.067c4.65,3.296,9.399,6.413,14.241,9.349
	c1.293,0.286,2.309,0.546,2.749,0.758c1.385,0.656,2.03,1.665,2.295,2.22c79.331,45.505,181.428,44.304,260.787,3.354
	C426.518,449.397,426.485,449.397,426.485,449.397z"></path>
<path id="color_x5F_3" fill="#ad836e" d="M177.308,243.937c-1.722,5.136-30.157,28.091-30.157,28.091s4.134,42.964-2.192,50.136
	c-2.036,2.285-52.798,0.939-55.867-3.163c-3.1-4.103-0.376-44.437-3.445-47.881c-3.1-3.413-42.965-26.837-41.274-32.662
	c1.722-5.825,29.123-26.712,29.123-26.712l10.272,6.671l-13.685,18.852c0,0,14.562,6.514,16.597,5.135
	c2.067-1.378,16.441-5.668,19.541-5.668c3.069,0,20.261,0.188,23.831,0.877c3.601,0.689,2.724,2.569,10.428,3.758
	c7.704,1.191,10.084-0.501,10.084-3.601c0-3.068-14.718-20.542-14.718-20.542l10.271-8.236
	C146.118,208.99,178.999,238.802,177.308,243.937L177.308,243.937z M438.479,130.356L438.479,130.356l5.95,18.445h23.142
	l6.858-18.445L438.479,130.356L438.479,130.356z"></path>
<path id="color_x5F_2" fill="#FBC02D" d="M492.999,335.66c-6.326,1.409-48.539,1.409-52.735,0
	c-4.228-1.409,0.219-53.456,0.219-53.456s-7.954,8.925-14.28,7.516c-6.357-1.409-36.827-35.888-36.827-35.888l7.985-6.325
	c0,0,32.098,22.735,34.228,20.636c2.098-2.097,17.098-25.302,22.015-25.302c4.948,0,17.599,0.688,17.599,0.688
	c4.228,2.098,10.898,5.293,15.47,11.618C491.245,261.475,499.325,334.251,492.999,335.66L492.999,335.66z M112.799,300.837
	L112.799,300.837c-1.096-1.472-2.599-2.317-4.259-2.38c-1.722-0.031-3.382,0.721-4.447,2.067c-0.626,0.751-1.472,1.315-2.411,1.597
	h1.91c0.438-0.313,0.846-0.657,1.159-1.064c0.908-1.128,2.349-1.754,3.758-1.723s2.662,0.752,3.601,2.004
	c0.188,0.282,0.407,0.532,0.658,0.782h1.253C113.582,301.746,113.143,301.339,112.799,300.837L112.799,300.837z M123.007,298.833
	L123.007,298.833c-1.315,0.189-2.411,1.191-3.351,3.069c-0.031,0.063-0.094,0.125-0.157,0.219h1.002
	c0.783-1.503,1.66-2.317,2.63-2.443c1.221-0.156,2.693,0.658,4.353,2.443h1.19c-0.094-0.125-0.188-0.219-0.282-0.313
	C126.358,299.585,124.605,298.614,123.007,298.833L123.007,298.833z M131.87,259.095L131.87,259.095
	c-0.971,1.034-1.816,1.91-2.881,1.91h-0.031c-0.971,0-2.161-0.783-3.57-2.349c-2.036-2.224-3.789-3.194-5.386-2.974
	c-1.315,0.188-2.411,1.19-3.351,3.068c-0.438,0.846-1.221,1.346-2.224,1.441c-1.628,0.125-3.445-0.846-4.635-2.506
	c-1.096-1.472-2.599-2.317-4.29-2.349c-1.691-0.063-3.351,0.721-4.415,2.067c-0.501,0.596-1.159,1.065-1.91,1.378v0.94
	c1.002-0.375,1.91-0.971,2.568-1.784c0.908-1.128,2.317-1.785,3.758-1.754c1.378,0.063,2.662,0.752,3.57,2.004
	c1.378,1.91,3.507,3.037,5.449,2.849c1.315-0.094,2.317-0.782,2.881-1.878c0.814-1.629,1.691-2.475,2.724-2.6
	c1.253-0.188,2.818,0.721,4.603,2.694c1.628,1.753,2.975,2.599,4.228,2.599c1.472,0.031,2.474-1.034,3.539-2.161
	c0.376-0.375,0.752-0.782,1.159-1.127c0.658-0.596,1.284-0.971,1.942-1.19v-0.877c-0.846,0.22-1.691,0.689-2.505,1.409
	C132.653,258.28,132.277,258.687,131.87,259.095L131.87,259.095z M133.467,294.481L133.467,294.481
	c-0.971,1.034-1.816,1.91-2.912,1.91c0,0,0,0-0.031,0c-0.971,0-2.161-0.782-3.57-2.317c-2.036-2.222-3.789-3.193-5.355-2.974
	c-1.347,0.188-2.443,1.19-3.382,3.069c-0.407,0.813-1.19,1.346-2.192,1.409c-1.628,0.156-3.476-0.846-4.666-2.475
	c-1.065-1.503-2.599-2.316-4.259-2.38c-1.722-0.03-3.351,0.721-4.447,2.067c-0.846,1.034-2.13,1.692-3.476,1.785v0.877
	c1.597-0.125,3.163-0.908,4.134-2.13c0.94-1.127,2.349-1.754,3.758-1.723s2.693,0.752,3.601,2.004
	c1.378,1.879,3.476,3.007,5.418,2.849c1.315-0.125,2.349-0.782,2.912-1.91c0.783-1.597,1.691-2.474,2.693-2.599
	c1.284-0.189,2.818,0.72,4.635,2.693c1.597,1.785,2.944,2.599,4.196,2.63c1.472,0,2.474-1.065,3.57-2.192
	c0.344-0.375,0.72-0.782,1.127-1.127c0.125-0.094,0.25-0.188,0.376-0.282V292.6c-0.313,0.188-0.626,0.438-0.939,0.721
	C134.218,293.698,133.843,294.105,133.467,294.481L133.467,294.481z M133.31,273.844L133.31,273.844
	c-0.971,1.034-1.816,1.911-2.881,1.911c-0.031,0-0.031,0-0.031,0c-1.002,0-2.161-0.783-3.601-2.317
	c-2.004-2.223-3.758-3.194-5.355-2.975c-1.315,0.188-2.411,1.19-3.351,3.069c-0.438,0.815-1.221,1.346-2.223,1.409
	c-1.628,0.156-3.445-0.846-4.666-2.474c-1.065-1.503-2.568-2.317-4.259-2.38c-1.691-0.031-3.351,0.721-4.447,2.067
	c-0.783,0.971-2.036,1.628-3.319,1.784v0.846c1.535-0.125,3.038-0.908,4.008-2.098c0.908-1.127,2.317-1.753,3.758-1.722
	c1.378,0.031,2.662,0.751,3.57,2.003c1.378,1.879,3.507,3.007,5.418,2.85c1.315-0.125,2.349-0.783,2.912-1.911
	c0.814-1.597,1.691-2.474,2.724-2.599c1.253-0.188,2.818,0.721,4.603,2.693c1.628,1.785,2.944,2.6,4.228,2.63
	c1.472,0,2.474-1.064,3.539-2.191c0.376-0.377,0.752-0.783,1.159-1.127c0.157-0.158,0.313-0.283,0.501-0.408v-1.034
	c-0.376,0.22-0.72,0.502-1.096,0.815C134.093,273.061,133.686,273.468,133.31,273.844L133.31,273.844z M131.87,266.109
	L131.87,266.109c-0.971,1.034-1.816,1.91-2.881,1.91h-0.031c-0.971,0-2.161-0.783-3.57-2.349c-2.036-2.192-3.789-3.162-5.386-2.943
	c-1.315,0.156-2.411,1.159-3.351,3.037c-0.438,0.846-1.221,1.379-2.224,1.441c-1.628,0.125-3.445-0.846-4.635-2.475
	c-1.096-1.503-2.599-2.317-4.29-2.38c-1.691-0.031-3.351,0.721-4.415,2.067c-0.501,0.596-1.159,1.065-1.91,1.378v0.94
	c1.002-0.344,1.91-0.971,2.568-1.784c0.908-1.128,2.317-1.754,3.758-1.723c1.378,0.031,2.662,0.752,3.57,2.004
	c1.378,1.878,3.507,3.006,5.449,2.849c1.315-0.125,2.317-0.783,2.881-1.91c0.814-1.629,1.691-2.475,2.724-2.6
	c1.253-0.188,2.818,0.721,4.603,2.694c1.628,1.784,2.975,2.599,4.228,2.63c1.472,0,2.474-1.065,3.539-2.192
	c0.376-0.375,0.752-0.782,1.159-1.127c0.658-0.563,1.284-0.971,1.942-1.159v-0.908c-0.846,0.22-1.691,0.689-2.505,1.409
	C132.653,265.295,132.277,265.733,131.87,266.109L131.87,266.109z M133.31,280.89L133.31,280.89
	c-0.971,1.002-1.816,1.911-2.881,1.911c-0.031,0-0.031,0-0.031,0c-1.002-0.031-2.161-0.783-3.601-2.349
	c-2.004-2.224-3.758-3.194-5.355-2.975c-1.315,0.188-2.411,1.19-3.351,3.069c-0.438,0.845-1.221,1.346-2.223,1.44
	c-1.628,0.125-3.445-0.846-4.666-2.505c-1.065-1.472-2.568-2.317-4.259-2.38c-1.691-0.031-3.351,0.751-4.447,2.067
	c-0.783,1.001-2.036,1.659-3.319,1.784v0.877c1.535-0.156,3.038-0.94,4.008-2.13c0.908-1.127,2.317-1.753,3.758-1.722
	c1.378,0.031,2.662,0.751,3.57,2.003c1.378,1.879,3.507,3.007,5.418,2.85c1.315-0.125,2.349-0.783,2.912-1.911
	c0.814-1.597,1.691-2.443,2.724-2.599c1.253-0.156,2.818,0.752,4.603,2.693c1.628,1.785,2.944,2.6,4.228,2.63
	c1.472,0.032,2.474-1.032,3.539-2.16c0.376-0.408,0.752-0.783,1.159-1.159c0.157-0.125,0.313-0.283,0.501-0.408v-1.034
	c-0.376,0.22-0.72,0.502-1.096,0.815C134.093,280.076,133.686,280.483,133.31,280.89L133.31,280.89z M135.596,302.121
	L135.596,302.121v-0.594c-0.219,0.188-0.407,0.407-0.595,0.594H135.596z M133.467,287.466L133.467,287.466
	c-0.971,1.034-1.816,1.91-2.912,1.91c0,0,0,0-0.031,0c-0.971,0-2.161-0.782-3.57-2.348c-2.036-2.225-3.789-3.194-5.355-2.975
	c-1.347,0.188-2.443,1.19-3.382,3.068c-0.407,0.846-1.19,1.348-2.192,1.441c-1.628,0.125-3.476-0.846-4.666-2.505
	c-1.065-1.473-2.599-2.317-4.259-2.35c-1.722-0.063-3.351,0.721-4.447,2.067c-0.846,1.002-2.13,1.692-3.476,1.785v0.845
	c1.597-0.093,3.163-0.876,4.134-2.097c0.94-1.127,2.349-1.785,3.758-1.754c1.409,0.063,2.693,0.752,3.601,2.036
	c1.378,1.879,3.476,3.007,5.418,2.819c1.315-0.095,2.349-0.783,2.912-1.879c0.783-1.629,1.691-2.474,2.693-2.599
	c1.284-0.189,2.818,0.72,4.635,2.693c1.597,1.753,2.944,2.599,4.196,2.599c1.472,0.031,2.474-1.034,3.57-2.161
	c0.344-0.375,0.72-0.782,1.127-1.127c0.125-0.094,0.25-0.219,0.376-0.313v-1.034c-0.313,0.188-0.626,0.438-0.939,0.689
	C134.218,286.652,133.843,287.058,133.467,287.466L133.467,287.466z"></path>
<path id="color_x5F_1" fill="#000000" d="M87.308,288.123c-12.057-1.972-21.639-4.854-24.082-7.515
	c-4.541-4.979-5.981-16.628-2.38-26.587c10.773,7.611,23.142,15.251,24.802,17.099C86.869,272.497,87.183,279.7,87.308,288.123z
	 M444.179,223.144c4.509,0.282,5.825-1.754,6.106,0.344c0.313,2.098,3.351,4.666,3.539,2.693c0.219-2.003,1.033-5.354,3.413-4.572
	c2.411,0.815-0.031,4.447-0.219,9.427c-0.188,5.01,0.47,4.635,4.666,6.044c4.196,1.378,14.968,1.001,16.566-8.205
	c1.597-9.176-3.194-23.174-11.775-25.178c-8.58-1.973-13.591-0.188-22.578-4.979c-8.988-4.791-14.593,6.389-10.397,14.186
	C437.696,220.702,439.7,222.83,444.179,223.144z M96.765,436.809c-0.72,0-1.441,1.002-1.441,1.002l-7.735-0.094l-0.595-1.065
	c0,0-1.065,0-1.347,0.721c-0.282,0.72-0.501,2.161-1.221,3.069c-0.72,0.939-12.338,2.662-14.123,3.539
	c-1.785,0.845-2.349,2.285-2.443,2.568c-0.063,0.282,0.219,0.563,0.219,0.563s28.309-0.063,28.685-0.501
	c0.344-0.438,0.689-2.63,0.845-4.072c0.157-1.44,0.72-3.319,0.438-4.008C97.767,437.811,97.454,436.809,96.765,436.809z
	 M150.565,237.768c0-1.878-5.449-9.082-9.708-14.436c-5.95-3.695-11.681-7.516-13.403-15.344
	c-2.912-13.371-16.096-14.562-16.096-14.562s-1.879-1.534-10.115,0.345c0.564,1.221-2.599,2.443-4.102,3.193
	c-1.534,0.752-4.384,3.634-5.136,4.855c-0.783,1.189-0.47,3.162-0.157,3.758c0.282,0.626,1.19,0.752,0.282,2.286
	c-0.626,1.034-1.722,1.065-2.599,1.001c0.532,3.007,1.566,6.076-0.438,11.963c-2.568,7.547-2.443,10.585-14.906,18.162
	c4.447,1.817,11.148,4.322,12.495,3.413c2.067-1.378,16.441-5.668,19.541-5.668c0.438,0,1.19,0.032,2.13,0.032
	c-0.658-1.598-1.628-3.79-2.13-4.384c-0.845-1.034-3.194-0.502-6.388-3.696c-3.194-3.225-5.011-13.653-5.011-13.653
	s3.163-2.882,3.163-6.044c0,0,2.693,3.194,8.079,4.885c5.386,1.659,11.931,1.002,11.931,1.002s0.846-2.349,2.693-3.038
	c1.848-0.658,4.384,2.881,3.194,5.574c-1.19,2.693-3.351,4.697-3.351,4.697s-0.344,4.697-1.691,5.543
	c-1.002,0.626,1.096,6.482,2.223,9.363c3.977,0.125,7.578,0.313,8.987,0.594c3.601,0.689,2.724,2.569,10.428,3.758
	C148.185,242.56,150.565,240.869,150.565,237.768z M479.001,436.12c-0.564,0.501-0.564,0.971-0.564,0.971l-8.8-0.25
	c0,0-1.033-1.817-1.816-1.41c-0.783,0.408-3.444,2.726-3.789,3.539c-0.156,0.439-3.1,1.159-6.106,1.817
	c-0.219-1.034-0.689-1.753-1.096-1.378c-0.564,0.501-0.564,0.971-0.564,0.971l-8.8-0.22c0,0-1.033-1.847-1.816-1.409
	c-0.783,0.407-3.445,2.692-3.789,3.507c-0.314,0.846-10.272,2.694-12.464,2.944s-3.038,2.317-2.975,2.974
	c0.063,0.658,0.063,1.221,0.063,1.221s30.564-0.156,30.908-0.156c0.157,0,0.345-1.502,0.47-3.193
	c9.051-0.032,21.483-0.095,21.702-0.095c0.345,0,0.689-5.699,0.689-7.234C480.254,437.185,479.565,435.587,479.001,436.12z
	 M163.467,443.823c-1.816-0.876-13.403-2.568-14.123-3.506c-0.72-0.94-0.939-2.38-1.221-3.101c-0.282-0.689-1.347-0.689-1.347-0.689
	l-0.595,1.065l-7.735,0.063c0,0-0.72-1.002-1.441-1.002c-0.72,0-1.002,1.002-1.284,1.723c-0.282,0.721,0.282,2.568,0.438,4.008
	c0.125,1.44,0.501,3.665,0.846,4.103c0.376,0.407,28.685,0.501,28.685,0.501s0.282-0.313,0.219-0.594
	C165.816,446.111,165.252,444.669,163.467,443.823z M148.06,284.93c1.034-0.627,1.942-1.347,2.693-2.098
	c5.699-5.856,8.33-13.56,8.956-21.294c-6.608,5.698-12.557,10.491-12.557,10.491S147.684,277.539,148.06,284.93z M490.901,363.093
	c-2.818,8.078-7.735,67.515-7.735,67.515h-18.038c0.027-3.628,0.14-10.432,0.536-18.407c-0.598,11.919-0.567,21.226-0.567,21.226
	h-24.363l-0.47-97.767c4.196,1.409,46.409,1.409,52.735,0C492.999,335.66,493.719,355.013,490.901,363.093z M475.303,362.968
	c0.054-0.054,0.107-0.11,0.162-0.162C475.41,362.858,475.356,362.914,475.303,362.968z M474.828,363.488
	c0.05-0.06,0.1-0.119,0.151-0.176C474.928,363.369,474.878,363.428,474.828,363.488z M474.373,364.068
	c0.042-0.058,0.085-0.114,0.127-0.17C474.458,363.955,474.415,364.01,474.373,364.068z M473.936,364.708
	c0.026-0.04,0.052-0.078,0.077-0.117C473.988,364.63,473.962,364.668,473.936,364.708z M465.715,411.195
	c-0.001,0.019-0.002,0.038-0.003,0.056C465.713,411.232,465.714,411.214,465.715,411.195z M475.959,362.379
	c-0.05,0.039-0.1,0.084-0.15,0.126C475.859,362.463,475.908,362.418,475.959,362.379z"></path>
</svg>